Title                            : Sherlock Holmes: A Game of Shadows
Year                             : 2011
Genre                            : Action | Adventure | Crime
iMDB URL                         : http://www.imdb.com/title/tt1515091/

Complete name                    : Sherlock.Holmes.A.Game.of.Shadows.2011.BRRIP.720P.H264-ZEKTORM.mp4
Format                           : MPEG-4
Format profile                   : Base Media
Codec ID                         : isom
File size                        : 3.68 GiB
Duration                         : 2h 8mn
Overall bit rate                 : 4098 Kbps
Subtitles                        : English (Format: srt)

Video
ID                               : 1
Format                           : AVC
Format/Info                      : Advanced Video Codec
Format profile                   : High@L4.0
Format settings, CABAC           : Yes
Format settings, ReFrames        : 12 frames
Codec ID                         : avc1
Codec ID/Info                    : Advanced Video Coding
Duration                         : 2h 8mn
Bit rate mode                    : Variable
Bit rate                         : 3649 Kbps
Width                            : 1280 pixels
Height                           : 528 pixels
Display aspect ratio             : 2.424
Frame rate mode                  : Constant
Frame rate                       : 23.976 fps
Resolution                       : 24 bits
Colorimetry                      : 4:2:0
Scan type                        : Progressive
Bits/(Pixel*Frame)               : 0.225
Stream size                      : 3.28 GiB (89%)
Title                            : Video
Writing library                  : x264

Audio
ID                               : 2
Format                           : AAC
Format/Info                      : Advanced Audio Codec
Format version                   : Version 4
Format profile                   : LC
Format settings, SBR             : No
Codec ID                         : 40
Duration                         : 2h 8mn
Bit rate mode                    : Variable
Bit rate                         : 445 Kbps
Maximum bit rate                 : 531 Kbps
Channel(s)                       : 6 channels
Channel positions                : Front: L C R, Rear: L R, LFE
Sampling rate                    : 48.0 KHz
Resolution                       : 16 bits
Stream size                      : 409 MiB (11%)
Language                         : English


Screenshots:

[img]http://img534.imageshack.us/img534/5714/snapshagos1.png[/img]

[img]http://img853.imageshack.us/img853/1091/snapshagos2.png[/img]
